<svg width="30" height="24" viewBox="0 0 30 24" fill="none" xmlns="http://www.w3.org/2000/svg">
<path d="M19.0909 0C21.9842 0 24.759 1.26428 26.8048 3.51472C28.8507 5.76516 30 8.8174 30 12C30 15.1826 28.8507 18.2348 26.8048 20.4853C24.759 22.7357 21.9842 24 19.0909 24C16.1976 24 13.4229 22.7357 11.377 20.4853C9.33117 18.2348 8.18182 15.1826 8.18182 12C8.18182 8.8174 9.33117 5.76516 11.377 3.51472C13.4229 1.26428 16.1976 0 19.0909 0V0ZM19.0909 3C16.921 3 14.8399 3.94821 13.3055 5.63604C11.7711 7.32387 10.9091 9.61305 10.9091 12C10.9091 14.3869 11.7711 16.6761 13.3055 18.364C14.8399 20.0518 16.921 21 19.0909 21C21.2609 21 23.3419 20.0518 24.8763 18.364C26.4107 16.6761 27.2727 14.3869 27.2727 12C27.2727 9.61305 26.4107 7.32387 24.8763 5.63604C23.3419 3.94821 21.2609 3 19.0909 3ZM17.7273 6H19.7727V11.67L22.95 15.165L21.5045 16.755L17.7273 12.6V6ZM1.36364 21C1.00198 21 0.655131 20.842 0.3994 20.5607C0.143668 20.2794 0 19.8978 0 19.5C0 19.1022 0.143668 18.7206 0.3994 18.4393C0.655131 18.158 1.00198 18 1.36364 18H6.58636C7.00909 19.065 7.55455 20.07 8.18182 21H1.36364ZM2.72727 13.5C2.36561 13.5 2.01877 13.342 1.76304 13.0607C1.5073 12.7794 1.36364 12.3978 1.36364 12C1.36364 11.6022 1.5073 11.2206 1.76304 10.9393C2.01877 10.658 2.36561 10.5 2.72727 10.5H5.52273L5.45455 12L5.52273 13.5H2.72727ZM4.09091 6C3.72925 6 3.3824 5.84196 3.12667 5.56066C2.87094 5.27936 2.72727 4.89782 2.72727 4.5C2.72727 4.10218 2.87094 3.72064 3.12667 3.43934C3.3824 3.15804 3.72925 3 4.09091 3H8.18182C7.55455 3.93 7.00909 4.935 6.58636 6H4.09091Z" fill="black"/>
</svg>
