<svg width="30" height="24" viewBox="0 0 30 24" fill="none" xmlns="http://www.w3.org/2000/svg">
<path d="M1.5 0H28.5C28.8978 0 29.2794 0.140476 29.5607 0.390524C29.842 0.640573 30 0.979711 30 1.33333V22.6667C30 23.0203 29.842 23.3594 29.5607 23.6095C29.2794 23.8595 28.8978 24 28.5 24H1.5C1.10218 24 0.720644 23.8595 0.43934 23.6095C0.158035 23.3594 0 23.0203 0 22.6667V1.33333C0 0.979711 0.158035 0.640573 0.43934 0.390524C0.720644 0.140476 1.10218 0 1.5 0V0ZM3 2.66667V21.3333H27V2.66667H3ZM9.75 14.6667H18C18.1989 14.6667 18.3897 14.5964 18.5303 14.4714C18.671 14.3464 18.75 14.1768 18.75 14C18.75 13.8232 18.671 13.6536 18.5303 13.5286C18.3897 13.4036 18.1989 13.3333 18 13.3333H12C11.0054 13.3333 10.0516 12.9821 9.34835 12.357C8.64509 11.7319 8.25 10.8841 8.25 10C8.25 9.11595 8.64509 8.2681 9.34835 7.64298C10.0516 7.01786 11.0054 6.66667 12 6.66667H13.5V4H16.5V6.66667H20.25V9.33333H12C11.8011 9.33333 11.6103 9.40357 11.4697 9.5286C11.329 9.65362 11.25 9.82319 11.25 10C11.25 10.1768 11.329 10.3464 11.4697 10.4714C11.6103 10.5964 11.8011 10.6667 12 10.6667H18C18.9946 10.6667 19.9484 11.0179 20.6517 11.643C21.3549 12.2681 21.75 13.1159 21.75 14C21.75 14.8841 21.3549 15.7319 20.6517 16.357C19.9484 16.9821 18.9946 17.3333 18 17.3333H16.5V20H13.5V17.3333H9.75V14.6667Z" fill="black"/>
</svg>
