<svg width="30" height="24" viewBox="0 0 30 24" fill="none" xmlns="http://www.w3.org/2000/svg">
<g clip-path="url(#clip0_19_50)">
<path d="M9.75001 16.5C9.63798 16.5 9.52595 16.5164 9.41908 16.5511C8.81158 16.7484 8.17267 16.875 7.50001 16.875C6.82736 16.875 6.18845 16.7484 5.58048 16.5511C5.47361 16.5164 5.36205 16.5 5.25001 16.5C2.34095 16.5 -0.0154541 18.8662 1.46904e-05 21.7791C0.00657719 23.01 1.01861 24 2.25001 24H12.75C13.9814 24 14.9935 23.01 15 21.7791C15.0155 18.8662 12.6591 16.5 9.75001 16.5ZM7.50001 15C9.98533 15 12 12.9853 12 10.5C12 8.01469 9.98533 6 7.50001 6C5.0147 6 3.00001 8.01469 3.00001 10.5C3.00001 12.9853 5.0147 15 7.50001 15ZM27.75 0H9.75001C8.50923 0 7.50001 1.04297 7.50001 2.32453V4.5C8.59783 4.5 9.61408 4.81781 10.5 5.33438V3H27V16.5H24V13.5H18V16.5H14.4263C15.3216 17.2823 15.9788 18.3155 16.2867 19.5H27.75C28.9908 19.5 30 18.457 30 17.1755V2.32453C30 1.04297 28.9908 0 27.75 0Z" fill="black"/>
</g>
<defs>
<clipPath id="clip0_19_50">
<rect width="30" height="24" fill="white"/>
</clipPath>
</defs>
</svg>
